# xmcd CD database file
#
# Track frame offsets:
#	150
#	27606
#	60305
#	89453
#	135512
#	167697
#	201025
#
# Disc length: 3041 seconds
#
# Revision: 0
# Processed by: cddbd v1.5.2PL0 Copyright (c) Steve Scherf et al.
# Submitted via: CDex 1.70beta2
#
DISCID=570bdf07
DTITLE=Piotr Lemanczyk: acoustic bass. T. Sowinski: drums, D.Bukowski: vib, J.Muniak, Dyakowski, Staroniewicz, Sikala, Herbasz: tenor sax, M.Grzywacz:guit - loffow the soul
DYEAR=2003
DGENRE=Jazz
TTITLE0=virga
TTITLE1=shy king of the village
TTITLE2=take 74
TTITLE3=you dont know what love is
TTITLE4=white lake
TTITLE5=my little m.
TTITLE6=blues for aga
EXTD=YEAR: 2003
EXTT0=
EXTT1=
EXTT2=
EXTT3=
EXTT4=
EXTT5=
EXTT6=
PLAYORDER=
